<svg width="203" height="423" viewBox="0 0 203 423" fill="none" xmlns="http://www.w3.org/2000/svg">
<path d="M7.38184 39.4322C7.38184 19.6342 23.9066 3.58472 44.2909 3.58472H158.709C179.093 3.58472 195.618 19.6342 195.618 39.4322V383.568C195.618 403.366 179.093 419.415 158.709 419.415H44.2909C23.9066 419.415 7.38184 403.366 7.38184 383.568V39.4322Z" fill="white"/>
<rect x="15.9843" y="10.09" width="171.031" height="402.82" rx="10" fill="white"/>
<path d="M148.558 381.646C148.955 375.41 148.822 373.353 147.955 372.337C147.296 371.565 146.83 369.158 146.811 366.427C146.782 362.29 146.21 360.745 141.212 351.311C135.879 341.242 135.687 340.692 136.635 338.144C137.519 335.769 137.393 334.969 135.461 330.638C133.533 326.318 132.666 325.377 127.503 321.991C117.488 315.422 109.437 308.725 96.0334 295.812C81.0686 281.391 68.6436 265.534 57.1217 246.152C53.121 239.423 52.8077 239.143 49.2737 239.125C46.6204 239.113 43.434 236.863 43.446 235.008C43.4492 234.471 40.2021 227.52 36.2301 219.563C25.9222 198.913 25.0407 194.516 28.1927 179.48C30.0636 170.565 30.4152 169.763 34.3168 165.565C38.459 161.111 37.8093 159.857 31.025 159.205C21.9614 158.333 22.0541 158.388 20.1752 152.736C19.2513 149.956 18.4953 146.806 18.4953 145.735C18.4953 142.188 22.6399 130.962 28.3381 119.075C31.4294 112.624 35.3934 103.826 37.146 99.5244C43.382 84.2171 51.9853 71.9778 58.9319 68.5331C61.709 67.156 67.1068 66.1207 83.1697 63.8814C92.111 62.6348 92.7408 62.0034 94.0251 52.9967C94.7723 47.7586 94.698 46.9376 93.2866 44.7162C92.2684 43.1162 91.7186 40.8514 91.7186 38.2587C91.7186 34.6129 91.9288 34.1601 94.1329 33.0525C96.2636 31.9822 96.5473 31.433 96.5473 28.379C96.5473 21.0734 98.0642 17.0057 102.283 13.0181C103.452 11.9106 104.494 10.8643 105.215 10.09H49.9658C31.1992 10.09 15.9843 24.8761 15.9843 43.1155V379.885C15.9843 398.123 31.1984 412.91 49.9658 412.91H151.051C150.71 412.179 149.997 410.996 149.17 409.824C146.87 406.57 146.895 407.712 148.558 381.646Z" fill="#0E499D"/>
<path d="M153.138 10.09H123.966C124.252 10.4218 124.665 10.7786 125.167 11.0995C128.775 13.4047 134.246 18.9576 135.12 21.1983C136.434 24.572 136.139 29.0533 134.283 33.892C133.217 36.6697 132.768 39.1551 133.07 40.6194C133.637 43.3869 130.85 49.2539 127.552 52.2383C126.362 53.3139 124.676 55.5491 123.805 57.206C122.935 58.8622 120.774 61.751 119.004 63.624C117.235 65.497 115.906 67.6281 116.053 68.3594C116.2 69.0915 118.305 70.7322 120.732 72.006C123.159 73.2798 126.792 75.7792 128.806 77.5605C130.82 79.3418 134.885 82.4661 137.84 84.5031C148.457 91.825 153.552 104.345 153.605 123.244C153.629 131.619 157.815 151.249 160.815 157.046C164.924 164.985 166.411 169.362 167.697 177.286C169.348 187.468 169.397 187.583 172.716 188.935C175.889 190.228 184.104 196.734 184.104 197.953C184.104 198.373 184.916 199.826 185.908 201.184L187.016 202.698V43.1351C187.014 24.8845 171.847 10.09 153.138 10.09ZM186.509 231.367C186.509 231.763 184.723 233.993 182.541 236.323C167.32 252.567 141.272 248.948 131.71 229.258C129.396 224.493 129.155 223.296 129.155 216.563C129.155 210.135 129.446 208.523 131.304 204.654C134.275 198.471 139.946 192.807 146.145 189.829C148.966 188.475 151.44 187.106 151.641 186.785C151.843 186.466 149.298 180.861 145.984 174.328C138.349 159.278 137.444 156.586 133.979 138.609C132.413 130.484 130.97 123.397 130.77 122.858C130.128 121.126 127.887 121.801 122.344 125.395L116.923 128.911L112.009 141.053C109.306 147.729 107.094 154.186 107.094 155.397C107.094 156.761 107.889 158.325 109.176 159.498C112.388 162.426 113.255 164.576 118.698 183.123C122.708 196.786 123.602 200.778 122.963 202.149C122.348 203.461 122.747 206.341 124.593 213.94C127.309 225.122 128.321 231.048 129.587 243.167C130.871 255.47 132.228 259.367 139.535 271.729C144.393 279.945 145.884 284.897 149.295 304.132C150.859 312.959 152.44 320.728 152.807 321.397C153.175 322.065 154.764 324.483 156.34 326.767C160.673 333.049 161.326 335.94 159.768 341.985C159.057 344.746 158.252 348.906 157.98 351.23C157.432 355.881 159.158 367.144 161.117 371.72C161.779 373.265 162.138 375.204 161.918 376.031C161.695 376.858 162.622 380.991 163.976 385.215C168.209 398.425 168.021 404.029 163.146 410.034C162.273 411.11 161.805 411.721 161.523 412.134C176.176 408.494 187.014 395.538 187.014 380.111V230.702C186.719 230.809 186.509 231.065 186.509 231.367Z" fill="#D30529"/>
<path d="M28.042 338.628H41.7797L49.7047 372.651H49.8373V338.628H61.3292V393.837H47.8561L39.6665 359.737H39.5339V393.837H28.042V338.628Z" fill="white"/>
<path d="M67.2769 338.628H85.837C94.6212 338.628 98.7163 344.118 98.7163 352.392C98.7163 358.268 96.5361 363.526 91.3188 364.763V364.917C97.5271 365.612 100.037 371.799 100.037 377.521C100.037 387.109 96.0749 393.836 85.837 393.836H67.2769V338.628ZM79.5616 360.279H82.5347C85.0442 360.279 86.4316 357.65 86.4316 354.711C86.4316 351.619 85.0442 348.99 82.5347 348.99H79.5616V360.279ZM79.5616 383.475H82.9966C85.2424 383.475 87.3555 381.156 87.3555 376.671C87.3555 372.418 85.2416 370.021 82.9966 370.021H79.5616V383.475Z" fill="white"/>
<path d="M112.263 338.628H127.718L139.211 393.837H126.133L124.878 384.172H115.103L113.849 393.837H100.769L112.263 338.628ZM120.056 349.917H119.924L116.556 373.347H123.425L120.056 349.917Z" fill="white"/>
</svg>
