<svg width="328" height="113" viewBox="0 0 328 113" fill="none" xmlns="http://www.w3.org/2000/svg">
<path d="M26.4 31.296C28.32 29.312 29.888 27.328 31.104 25.344C32.32 23.296 32.928 21.536 32.928 20.064C32.928 18.208 32.256 16.768 30.912 15.744C29.568 14.72 27.68 14.208 25.248 14.208C22.496 14.208 19.488 14.976 16.224 16.512C12.96 18.048 9.79201 20.096 6.72001 22.656L1.15633e-05 9.98401C4.35201 6.84801 8.86401 4.41601 13.536 2.68802C18.208 0.896017 23.008 1.71661e-05 27.936 1.71661e-05C32.48 1.71661e-05 36.512 0.736015 40.032 2.20801C43.552 3.61601 46.304 5.63201 48.288 8.25601C50.336 10.88 51.36 13.984 51.36 17.568C51.36 21.216 50.112 24.928 47.616 28.704C45.184 32.416 42.08 36.16 38.304 39.936L19.104 59.424L16.8 54.048H53.28V67.968H2.01601L1.92001 56.544L26.4 31.296ZM57.741 0.672014H111.405V12.672L86.061 67.968H67.437L95.181 7.58402L99.693 14.592H65.613L73.293 6.91201L73.197 24H57.741V0.672014ZM143.648 15.552C149.344 15.552 154.304 16.64 158.528 18.816C162.816 20.992 166.144 24.064 168.512 28.032C170.88 32 172.064 36.64 172.064 41.952C172.064 47.264 170.88 51.936 168.512 55.968C166.144 59.936 162.816 63.04 158.528 65.28C154.304 67.456 149.344 68.544 143.648 68.544C137.952 68.544 132.96 67.456 128.672 65.28C124.448 63.04 121.152 59.936 118.784 55.968C116.48 51.936 115.328 47.264 115.328 41.952C115.328 36.64 116.48 32 118.784 28.032C121.152 24.064 124.448 20.992 128.672 18.816C132.96 16.64 137.952 15.552 143.648 15.552ZM143.648 29.088C141.408 29.088 139.456 29.632 137.792 30.72C136.128 31.808 134.816 33.344 133.856 35.328C132.96 37.312 132.512 39.616 132.512 42.24C132.512 44.864 132.96 47.168 133.856 49.152C134.816 51.072 136.128 52.576 137.792 53.664C139.456 54.752 141.408 55.296 143.648 55.296C145.888 55.296 147.84 54.752 149.504 53.664C151.232 52.576 152.544 51.072 153.44 49.152C154.4 47.168 154.88 44.864 154.88 42.24C154.88 39.616 154.4 37.312 153.44 35.328C152.544 33.344 151.232 31.808 149.504 30.72C147.84 29.632 145.888 29.088 143.648 29.088ZM196.323 44.064C196.323 47.008 197.059 49.344 198.531 51.072C200.067 52.8 202.115 53.664 204.675 53.664C207.747 53.6 210.115 52.448 211.779 50.208C213.507 47.968 214.371 45.152 214.371 41.76H218.403C218.403 47.584 217.571 52.512 215.907 56.544C214.243 60.512 211.875 63.52 208.803 65.568C205.731 67.616 202.051 68.64 197.763 68.64C194.051 68.64 190.787 67.84 187.971 66.24C185.219 64.576 183.075 62.272 181.539 59.328C180.003 56.384 179.235 52.896 179.235 48.864V16.128H196.323V44.064ZM214.371 16.128H231.459V67.968H214.371V16.128ZM263.913 49.536C263.913 51.52 264.329 52.96 265.161 53.856C265.993 54.752 267.145 55.168 268.617 55.104C269.513 55.104 270.505 54.944 271.593 54.624C272.681 54.304 273.833 53.888 275.049 53.376L278.313 65.184C276.457 66.336 274.281 67.232 271.785 67.872C269.353 68.448 266.857 68.736 264.297 68.736C260.969 68.736 257.993 68.128 255.369 66.912C252.745 65.632 250.665 63.776 249.129 61.344C247.657 58.848 246.921 55.808 246.921 52.224V4.22401H263.913V49.536ZM239.721 18.528H277.353V29.664H239.721V18.528ZM321.083 32.256C317.883 30.592 314.875 29.312 312.059 28.416C309.243 27.52 306.747 27.072 304.571 27.072C303.163 27.072 301.979 27.36 301.019 27.936C300.123 28.448 299.675 29.28 299.675 30.432C299.675 31.584 300.315 32.512 301.595 33.216C302.939 33.856 304.635 34.496 306.683 35.136C308.795 35.712 311.003 36.352 313.307 37.056C315.611 37.76 317.787 38.72 319.835 39.936C321.947 41.088 323.643 42.656 324.923 44.64C326.203 46.56 326.843 49.024 326.843 52.032C326.843 55.552 325.883 58.56 323.963 61.056C322.107 63.552 319.515 65.44 316.187 66.72C312.923 68 309.147 68.64 304.859 68.64C300.507 68.64 296.315 68.032 292.283 66.816C288.251 65.6 284.635 63.776 281.435 61.344L286.811 50.496C289.819 52.544 292.923 54.144 296.123 55.296C299.323 56.384 302.363 56.928 305.243 56.928C306.331 56.928 307.259 56.8 308.027 56.544C308.859 56.288 309.499 55.936 309.947 55.488C310.459 54.976 310.715 54.336 310.715 53.568C310.715 52.352 310.075 51.392 308.795 50.688C307.515 49.92 305.851 49.28 303.803 48.768C301.755 48.192 299.579 47.552 297.275 46.848C294.971 46.144 292.795 45.216 290.747 44.064C288.763 42.848 287.131 41.28 285.851 39.36C284.571 37.44 283.931 34.976 283.931 31.968C283.931 28.384 284.859 25.376 286.715 22.944C288.635 20.448 291.163 18.56 294.299 17.28C297.499 16 301.147 15.36 305.243 15.36C309.019 15.36 312.763 15.872 316.475 16.896C320.187 17.856 323.643 19.328 326.843 21.312L321.083 32.256ZM240.813 86.768H243.693V109.484H254.745V111.968H240.813V86.768ZM267.324 86.768H270.276L281.544 111.968H278.448L268.728 89.72L259.08 111.968H256.056L267.324 86.768ZM261.024 102.932H276.324V105.416H261.024V102.932ZM296.152 86.768C297.856 86.768 299.308 87.02 300.508 87.524C301.732 88.028 302.668 88.748 303.316 89.684C303.964 90.62 304.288 91.748 304.288 93.068C304.288 94.532 303.88 95.78 303.064 96.812C302.248 97.82 301.12 98.468 299.68 98.756C301.48 99.02 302.884 99.716 303.892 100.844C304.9 101.972 305.404 103.4 305.404 105.128C305.404 106.568 305.044 107.804 304.324 108.836C303.604 109.844 302.56 110.624 301.192 111.176C299.848 111.704 298.216 111.968 296.296 111.968H285.532V86.768H296.152ZM296.008 97.748C297.688 97.748 298.996 97.376 299.932 96.632C300.892 95.888 301.372 94.832 301.372 93.464C301.372 92.12 300.892 91.088 299.932 90.368C298.996 89.624 297.688 89.264 296.008 89.288H288.412V97.748H296.008ZM296.008 109.484C298.048 109.484 299.632 109.076 300.76 108.26C301.912 107.444 302.488 106.292 302.488 104.804C302.488 103.364 301.912 102.248 300.76 101.456C299.632 100.64 298.048 100.232 296.008 100.232H288.412V109.484H296.008ZM325.557 91.232C324.813 90.728 324.021 90.332 323.181 90.044C322.365 89.732 321.561 89.504 320.769 89.36C320.001 89.216 319.281 89.144 318.609 89.144C316.977 89.144 315.669 89.468 314.685 90.116C313.725 90.764 313.245 91.652 313.245 92.78C313.245 93.764 313.497 94.556 314.001 95.156C314.529 95.756 315.213 96.248 316.053 96.632C316.893 97.016 317.817 97.364 318.825 97.676C319.833 97.964 320.841 98.288 321.849 98.648C322.857 98.984 323.781 99.428 324.621 99.98C325.461 100.508 326.133 101.204 326.637 102.068C327.141 102.908 327.393 103.988 327.393 105.308C327.393 106.7 327.009 107.912 326.241 108.944C325.473 109.952 324.405 110.744 323.037 111.32C321.669 111.872 320.085 112.148 318.285 112.148C317.061 112.148 315.861 111.992 314.685 111.68C313.509 111.344 312.405 110.888 311.373 110.312C310.341 109.736 309.429 109.076 308.637 108.332L309.933 105.992C310.725 106.736 311.589 107.372 312.525 107.9C313.461 108.428 314.421 108.836 315.405 109.124C316.413 109.412 317.385 109.556 318.321 109.556C320.145 109.556 321.585 109.184 322.641 108.44C323.697 107.696 324.225 106.688 324.225 105.416C324.225 104.432 323.973 103.628 323.469 103.004C322.965 102.38 322.293 101.876 321.453 101.492C320.613 101.108 319.689 100.772 318.681 100.484C317.673 100.196 316.653 99.884 315.621 99.548C314.613 99.188 313.689 98.756 312.849 98.252C312.009 97.724 311.337 97.04 310.833 96.2C310.329 95.36 310.077 94.292 310.077 92.996C310.077 91.676 310.437 90.536 311.157 89.576C311.877 88.616 312.897 87.872 314.217 87.344C315.537 86.792 317.061 86.516 318.789 86.516C320.253 86.516 321.681 86.732 323.073 87.164C324.489 87.596 325.725 88.148 326.781 88.82L325.557 91.232Z" fill="#0A0E1A"/>
</svg>
